<?xml version="1.0" encoding="utf-8"?>
<!-- Generator: Adobe Illustrator 24.1.2, SVG Export Plug-In . SVG Version: 6.00 Build 0)  -->
<svg version="1.1" id="Layer_1" xmlns="http://www.w3.org/2000/svg" xmlns:xlink="http://www.w3.org/1999/xlink" x="0px" y="0px"
	 viewBox="0 0 1762 408" style="enable-background:new 0 0 1762 408;" xml:space="preserve">
<style type="text/css">
	.st0{fill:#FF9F1C;}
	.st1{fill:#FFBF69;}
</style>
<g>
	<g>
		<g>
			<g>
				<rect x="26" y="153.4" class="st0" width="48.4" height="165.5"/>
			</g>
			<g>
				<path class="st0" d="M173,213.7c-24.1-1.5-24.1-9.3-24.1-11.9c0-9.3,16.2-10.3,23.2-10.3c15,0,25.7,3.8,34.8,12.4l3.9,3.7l28-33
					l-3.7-3.3c-17.5-15.4-36-21.7-63.6-21.7c-35,0-70.3,16.5-70.3,53.4c0,30.9,24.4,49.7,68.8,53.1c26,1.5,26,7.4,26,11.3
					c0,7.4-9.9,13.5-22,13.5l-0.8,0c-15.3-0.3-39.4-8.6-49.7-20l-4.3-4.8l-24.8,36l2.9,3c24.7,25.7,51.9,29.2,75.2,29.2
					c49.5,0,71.6-28.1,71.6-55.9C244,218.3,192.4,215,173,213.7z"/>
			</g>
			<g>
				<g>
					<path class="st0" d="M341.6,150.9c-49.3,0-85.1,36.1-85.1,85.7c0,50.5,35.1,85.7,85.4,85.7c50.5,0,85.7-35.3,85.7-85.7
						C427.7,187,391.5,150.9,341.6,150.9z M378.9,236.7c0,20.1-11.4,40.5-37,40.5c-25.6,0-37-20.3-37-40.5c0-19.6,11.6-40.8,37-40.8
						C365.1,195.9,378.9,216.6,378.9,236.7z"/>
				</g>
			</g>
		</g>
	</g>
	<g>
		<g>
			<g>
				<g>
					<path class="st1" d="M596.4,154h39.1v164.6h-38.4l-2-24c-9.3,19.4-35,28.7-53.4,29c-48.7,0.3-84.8-29.7-84.8-87.5
						c0-56.7,37.7-86.5,85.8-86.1c22,0,43.1,10.3,52.4,26.7L596.4,154z M497.6,236.2c0,31.4,21.7,50.1,48.7,50.1
						c64.1,0,64.1-99.8,0-99.8C519.3,186.4,497.6,204.8,497.6,236.2z"/>
					<path class="st1" d="M814.7,297.6c-19,18.7-39.1,26-63.4,26c-47.7,0-87.5-28.7-87.5-87.1s39.7-87.1,87.5-87.1
						c23.4,0,41.4,6.7,59.4,24.4l-25.7,27c-9.7-8.7-21.7-13-33-13c-27.4,0-47.4,20-47.4,48.7c0,31.4,21.4,48.1,46.7,48.1
						c13,0,26-3.7,36-13.7L814.7,297.6z"/>
					<path class="st1" d="M874.5,154v86.1c0,25,13.7,44.1,39.7,44.1c25,0,42.1-21,42.1-46.1V154h40.4v164.9h-36.4l-2.7-22.4
						c-17,16.7-32.7,24.7-55.7,24.7c-39.4,0-68.1-29.7-68.1-80.8V154H874.5z"/>
					<path class="st1" d="M1140.2,197.8c-11.7-11-25-14.7-40.7-14.7c-19.4,0-30,6-30,16.4c0,10.7,9.7,16.7,30.7,18
						c31,2,70.4,9,70.4,52.7c0,29-23.7,54.1-70.8,54.1c-26,0-52.1-4.3-76.1-29.4l20-29c11.7,13,38.4,22.7,56.7,23
						c15.4,0.3,29.7-7.7,29.7-19.7c0-11.3-9.3-16-32.7-17.4c-31-2.3-68.1-13.7-68.1-51.1c0-38.1,39.4-51.4,69.4-51.4
						c25.7,0,45.1,5,64.1,21.7L1140.2,197.8z"/>
					<path class="st1" d="M1254,107.6v46.7h45.4v35h-45.7v71.1c0,15.7,8.7,23.4,21.4,23.4c6.3,0,13.7-2,19.7-5l11.4,34.7
						c-11.7,4.7-21.4,6.7-33.7,7c-35.7,1.3-59.1-19-59.1-60.1v-71.1h-30.7v-35h30.7V112L1254,107.6z"/>
					<path class="st1" d="M1329.8,153.4v165.2h40.7V153.4H1329.8z"/>
					<path class="st1" d="M1548.4,297.6c-19,18.7-39.1,26-63.4,26c-47.7,0-87.5-28.7-87.5-87.1s39.7-87.1,87.5-87.1
						c23.4,0,41.4,6.7,59.4,24.4l-25.7,27c-9.7-8.7-21.7-13-33-13c-27.4,0-47.4,20-47.4,48.7c0,31.4,21.4,48.1,46.7,48.1
						c13,0,26-3.7,36-13.7L1548.4,297.6z"/>
					<path class="st1" d="M1696.9,154h39.1v164.6h-38.4l-2-24c-9.3,19.4-35,28.7-53.4,29c-48.7,0.3-84.8-29.7-84.8-87.5
						c0-56.7,37.7-86.5,85.8-86.1c22,0,43.1,10.3,52.4,26.7L1696.9,154z M1598.1,236.2c0,31.4,21.7,50.1,48.7,50.1
						c64.1,0,64.1-99.8,0-99.8C1619.8,186.4,1598.1,204.8,1598.1,236.2z"/>
				</g>
			</g>
			<g>
				<path class="st1" d="M960.4,83.7h-3.3c-8.5,7.7-20.1,11.6-33.3,11.7v36.1c0.3,0,0.5,0,0.8,0c25.4,0,46.4-8.2,61.4-22.2
					L960.4,83.7z"/>
			</g>
		</g>
	</g>
</g>
</svg>
